<?xml version="1.0" encoding="utf-8"?>
<!-- Generator: Adobe Illustrator 21.0.2, SVG Export Plug-In . SVG Version: 6.00 Build 0)  -->
<svg version="1.1" id="Layer_1" xmlns="http://www.w3.org/2000/svg" xmlns:xlink="http://www.w3.org/1999/xlink" x="0px" y="0px"
	 viewBox="0 0 50 46" style="enable-background:new 0 0 50 46;" xml:space="preserve">
<style type="text/css">
	.st0{fill:#FFFFFF;}
	.st1{font-family:'Oswald-Bold';}
	.st2{font-size:26.9939px;}
	.st3{letter-spacing:-2;}
	.st4{fill:#FFFFFF;stroke:#000000;stroke-miterlimit:10;}
	.st5{fill:#FF0000;}
	.st6{font-family:'PiecesNFI';}
	.st7{font-size:14.9925px;}
</style>
<text transform="matrix(1 0 0 1 -0.9771 22.3885)"><tspan x="0" y="0" class="st0 st1 st2 st3">GR</tspan><tspan x="27.8" y="0" class="st0 st1 st2 st3">I</tspan><tspan x="33.5" y="0" class="st0 st1 st2 st3">M</tspan></text>
<path class="st4" d="M9.4,22.2c0.1-0.3,0.1-0.5,0.2-0.8c0.1-0.5,0.3-1.1,0.5-1.6c0.3-0.8,0.8-1.3,1.6-1.5c1.2-0.4,2.4-0.5,3.6-0.6
	c2.1-0.2,4.3,0,6.4,0.1c2.5,0.2,5,0.4,7.5,0.3c0.3,0,0.6,0,0.9-0.1c0.2,0,0.3,0,0.2,0.3c-0.1,0.2,0,0.3,0.2,0.3
	c0.1,0,0.3,0.1,0.4,0.1c1.8,0.1,3.6,0.2,5.5,0.1c1.7-0.1,3.3-0.1,4.9-0.5c1.5-0.3,3-0.9,4.5-1.5c0.5-0.2,1-0.3,1.5-0.4
	c0.3,0,0.6,0,0.9,0c0.1,0,0.1,0,0.2,0.1c0.9,0.2,1.5,0.8,1.6,1.8c0.1,0.7,0,1.4,0,2c0,2.4,0,4.7-0.1,7.1c0,0.4,0,0.8-0.1,1.2
	c-0.1,0.4-0.2,0.4-0.5,0.4c-3.9,0.1-7.7,0.1-11.6,0.2c-1.7,0-3.3,0-5,0.1c-0.6,0-1.2,0-1.7,0c-0.5,0-0.9,0.1-1.4,0.1
	c-0.2,0-0.4,0-0.7,0c-0.8,0-0.9-0.1-0.9-1c0,0,0-0.1,0-0.1c0.1-0.9,0.2-1.7,0.3-2.6c0-0.5,0.1-0.9,0.1-1.5c-0.1,0-0.2,0-0.2,0.1
	c-0.5,0.2-0.7,0.2-1.1-0.3c-0.2-0.3-0.4-0.6-0.6-0.9c-0.2-0.4-0.6-0.7-1-0.7c-0.4,0-0.7,0-1.1,0c-1.4,0.2-2.8,0.5-4.3,0.4
	c-1.3-0.1-2.7-0.1-4-0.2c-0.7,0-1.3-0.2-2-0.2c-0.5,0-0.9,0.2-1.1,0.8c0,0.1-0.1,0.1-0.1,0.2c-0.3,0.6-0.5,0.8-1.1,0.6
	c-0.5-0.1-1-0.3-1.5-0.5c-0.4-0.1-0.7-0.3-0.9-0.8C9.4,22.6,9.4,22.4,9.4,22.2z M47.8,17.8c-0.3,0-0.6,0.3-0.6,0.7
	c0,0.3,0.2,0.6,0.4,0.6c0.3,0,0.6-0.3,0.6-0.7C48.3,18,48.1,17.8,47.8,17.8z"/>
<text transform="matrix(1 0 0 1 29.0918 43.3602)" class="st5 st6 st7">TV</text>
</svg>
